<svg width="23" height="23" viewBox="0 0 23 23" fill="none" xmlns="http://www.w3.org/2000/svg">
<g clip-path="url(#clip0_23827_496)">
<path d="M11.5 23C7.53635 23 4.3125 19.7762 4.3125 15.8125V5.75C4.3125 5.22006 4.74189 4.79173 5.27077 4.79173C5.79984 4.79173 6.22923 5.22006 6.22923 5.75V15.8125C6.22923 18.7182 8.59341 21.0833 11.5 21.0833C14.4066 21.0833 16.7708 18.7182 16.7708 15.8125V5.27077C16.7708 3.42126 15.2662 1.91673 13.4167 1.91673C11.567 1.91673 10.0625 3.42126 10.0625 5.27077V14.8542C10.0625 15.6467 10.7074 16.2917 11.5 16.2917C12.2926 16.2917 12.9375 15.6467 12.9375 14.8542V5.75C12.9375 5.22006 13.3669 4.79173 13.8958 4.79173C14.4248 4.79173 14.8542 5.22006 14.8542 5.75V14.8542C14.8542 16.7037 13.3495 18.2083 11.5 18.2083C9.65048 18.2083 8.14577 16.7037 8.14577 14.8542V5.27077C8.14577 2.36524 10.51 0 13.4167 0C16.3233 0 18.6875 2.36524 18.6875 5.27077V15.8125C18.6875 19.7762 15.4637 23 11.5 23Z" fill="#808080"/>
</g>
<defs>
<clipPath id="clip0_23827_496">
<rect width="23" height="23" fill="white"/>
</clipPath>
</defs>
</svg>
