<svg width="20" height="18" viewBox="0 0 20 18" fill="none" xmlns="http://www.w3.org/2000/svg">
<path fill-rule="evenodd" clip-rule="evenodd" d="M11 0C10.1716 0 9.5 0.671573 9.5 1.5H8H6H4C1.79086 1.5 0 3.29086 0 5.5V13.5C0 15.7091 1.79086 17.5 4 17.5H16C18.2091 17.5 20 15.7091 20 13.5V5.5C20 3.46008 18.473 1.77682 16.4997 1.53091C16.4999 1.52063 16.5 1.51033 16.5 1.5C16.5 0.671573 15.8284 0 15 0H11ZM18 5.5C18 4.39543 17.1046 3.5 16 3.5H14H12H8H6H4C2.89543 3.5 2 4.39543 2 5.5V13.5C2 14.6046 2.89543 15.5 4 15.5H16C17.1046 15.5 18 14.6046 18 13.5V5.5ZM10 11.5C11.1046 11.5 12 10.6046 12 9.5C12 8.39543 11.1046 7.5 10 7.5C8.89543 7.5 8 8.39543 8 9.5C8 10.6046 8.89543 11.5 10 11.5ZM10 13.5C12.2091 13.5 14 11.7091 14 9.5C14 7.29086 12.2091 5.5 10 5.5C7.79086 5.5 6 7.29086 6 9.5C6 11.7091 7.79086 13.5 10 13.5Z" fill="#333333"/>
</svg>
