<svg width="24" height="24" viewBox="0 0 24 24" fill="none" xmlns="http://www.w3.org/2000/svg">
<path fill-rule="evenodd" clip-rule="evenodd" d="M9 2C7.89543 2 7 2.89543 7 4V5H4L3.99497 5.00001H3.95146L3.95152 5.00115C3.42175 5.02644 3 5.46397 3 6C3 6.55228 3.44772 7 4 7H4.0448L4.61132 19.1399C4.68602 20.7406 6.00558 22 7.60806 22H16.3904C17.9929 22 19.3124 20.7406 19.3871 19.1399L19.9536 7H20C20.5523 7 21 6.55228 21 6C21 5.46344 20.5774 5.02559 20.0469 5.00108L20.047 5.00001H20.005L20 5H17V4C17 2.89543 16.1046 2 15 2H9ZM15 5V4H9V5H15ZM6.04697 7.00001L6.60915 19.0466C6.63405 19.5802 7.0739 20 7.60806 20H16.3904C16.9245 20 17.3644 19.5802 17.3893 19.0466L17.9515 7.00001H6.04697ZM14 9C14.5523 9 15 9.44772 15 10V17C15 17.5523 14.5523 18 14 18C13.4477 18 13 17.5523 13 17V10C13 9.44772 13.4477 9 14 9ZM10 9C10.5523 9 11 9.44772 11 10V17C11 17.5523 10.5523 18 10 18C9.44772 18 9 17.5523 9 17V10C9 9.44772 9.44772 9 10 9Z" fill="#373530"/>
</svg>
