<svg width="42" height="42" viewBox="0 0 42 42" fill="none" xmlns="http://www.w3.org/2000/svg">
<path d="M29.6208 0H8.36104C7.45267 0 6.71631 0.752119 6.71631 1.68003V40.32C6.71631 41.2478 7.45267 42 8.36113 42H35.226C36.1344 42 36.8708 41.2479 36.8708 40.32V7.40522L29.6208 0Z" fill="#EEEEEE"/>
<path d="M36.8708 23.1454H4.24902V34.6523H36.8708V23.1454Z" fill="#27A2DB"/>
<path d="M16.0444 26.3451C16.7088 26.9595 17.0403 27.8139 17.0403 28.9087C17.0403 30.0029 16.7185 30.8693 16.074 31.507C15.4296 32.1451 14.4434 32.4639 13.116 32.4639H10.8281V25.4234H13.1947C14.4305 25.4234 15.3807 25.7308 16.0444 26.3451ZM15.867 28.9385C15.867 27.327 14.9634 26.5213 13.1554 26.5213H11.9918V31.3458H13.2838C14.1184 31.3458 14.758 31.1429 15.2017 30.7364C15.6454 30.3304 15.867 29.7312 15.867 28.9385Z" fill="#EBF0F3"/>
<path d="M24.3075 31.4919C23.6109 32.1869 22.7499 32.5345 21.7243 32.5345C20.6987 32.5345 19.8377 32.1869 19.1411 31.4919C18.4437 30.7972 18.0955 29.9307 18.0955 28.8935C18.0955 27.8558 18.4437 26.9898 19.1411 26.2947C19.8377 25.5997 20.6987 25.2526 21.7243 25.2526C22.7499 25.2526 23.6109 25.5997 24.3075 26.2947C25.0049 26.9898 25.3531 27.8558 25.3531 28.8935C25.3531 29.9307 25.0049 30.7971 24.3075 31.4919ZM23.4553 27.0853C22.985 26.5886 22.408 26.3403 21.7243 26.3403C21.0405 26.3403 20.4636 26.5886 19.9933 27.0853C19.5239 27.5825 19.2888 28.1849 19.2888 28.8935C19.2888 29.6021 19.5239 30.2046 19.9933 30.7013C20.4636 31.1984 21.0406 31.4467 21.7243 31.4467C22.4081 31.4467 22.985 31.1984 23.4553 30.7013C23.9247 30.2046 24.1598 29.602 24.1598 28.8935C24.1598 28.185 23.9248 27.5824 23.4553 27.0853Z" fill="#EBF0F3"/>
<path d="M29.9685 31.3861C30.3689 31.3861 30.714 31.3177 31.0038 31.18C31.2926 31.0423 31.5952 30.8222 31.9113 30.5202L32.6601 31.3058C31.9306 32.1317 31.0447 32.5448 30.003 32.5448C28.9605 32.5448 28.0963 32.2022 27.4093 31.5173C26.7224 30.8325 26.3789 29.9661 26.3789 28.9185C26.3789 27.871 26.7288 26.9984 27.4294 26.2997C28.1291 25.6017 29.0135 25.2526 30.0816 25.2526C31.1497 25.2526 32.0421 25.6554 32.7587 26.4612L32.0196 27.287C31.6906 26.9649 31.38 26.7399 31.0871 26.612C30.7949 26.4846 30.4515 26.4207 30.0567 26.4207C29.3601 26.4207 28.7751 26.651 28.3016 27.1108C27.8282 27.5706 27.5914 28.1583 27.5914 28.8735C27.5914 29.5887 27.8266 30.1862 28.2968 30.6661C28.7672 31.1464 29.3241 31.3861 29.9685 31.3861Z" fill="#EBF0F3"/>
<path d="M4.24902 34.652L6.71625 36.9952V34.652H4.24902Z" fill="#2D93BA"/>
<path d="M29.6207 7.40522H36.8707L29.6206 0L29.6207 7.40522Z" fill="#DDDDDD"/>
<path d="M31.0156 7.40521L36.8708 10.875V7.40521H31.0156Z" fill="#EFEFEF"/>
</svg>
