<svg width="32" height="40" viewBox="0 0 32 40" fill="none" xmlns="http://www.w3.org/2000/svg">
<path d="M26 35H6C4.34315 35 3 33.6569 3 32V8C3 6.34315 4.34315 5 6 5H19.7849C20.65 5 21.473 5.37344 22.0427 6.02449L28.2577 13.1274C28.7362 13.6743 29 14.3763 29 15.1029V32C29 33.6569 27.6569 35 26 35Z" fill="#1EBE71" stroke="#1EBE71" stroke-width="2"/>
<path fill-rule="evenodd" clip-rule="evenodd" d="M20.5 21L17 24.2664L17 13C17 12.4477 16.5523 12 16 12C15.4477 12 15 12.4477 15 13L15 24.2683L11.5 21.0019L9.99998 22.4018L16.0001 28.0015L17.5001 26.6016L17.499 26.6006L22 22.3999L20.5 21Z" fill="white"/>
</svg>
