<svg width="16" height="18" viewBox="0 0 16 18" fill="none" xmlns="http://www.w3.org/2000/svg">
<path fill-rule="evenodd" clip-rule="evenodd" d="M2 3C2 2.44772 2.44772 2 3 2H10C10.2568 2 10.5037 2.09878 10.6897 2.27586L13.6897 5.13301C13.8878 5.32175 14 5.58347 14 5.85714V15C14 15.5523 13.5523 16 13 16H3C2.44772 16 2 15.5523 2 15V3ZM3 0C1.34315 0 0 1.34315 0 3V15C0 16.6569 1.34315 18 3 18H13C14.6569 18 16 16.6569 16 15V5.85714C16 5.03611 15.6635 4.25096 15.069 3.68473L12.069 0.827586C11.5111 0.296324 10.7703 0 10 0H3ZM5.00098 12C4.44869 12 4.00098 12.4477 4.00098 13C4.00098 13.5523 4.44869 14 5.00098 14H11.001C11.5533 14 12.001 13.5523 12.001 13C12.001 12.4477 11.5533 12 11.001 12H5.00098ZM4.00098 9C4.00098 8.44771 4.44869 8 5.00098 8H11.001C11.5533 8 12.001 8.44771 12.001 9C12.001 9.55229 11.5533 10 11.001 10H5.00098C4.44869 10 4.00098 9.55229 4.00098 9Z" fill="#333333"/>
</svg>
