<svg width="35" height="35" viewBox="0 0 35 35" fill="none" xmlns="http://www.w3.org/2000/svg">
<circle cx="17.5" cy="17.5" r="17.5" fill="#8BBE1E"/>
<g clip-path="url(#clip0_301_361)">
<path d="M15.5006 12.3869C15.5997 12.3869 15.7004 12.3647 15.7952 12.3176C16.3084 12.063 16.8602 11.93 17.4351 11.9223C17.4409 11.9222 17.4465 11.9214 17.4522 11.9212C17.4571 11.9213 17.4619 11.9219 17.4669 11.9219C17.4844 11.9219 17.5016 11.9207 17.5187 11.9193C17.5341 11.9206 17.5494 11.9221 17.565 11.9223C19.6713 11.9506 21.3848 13.6782 21.3848 15.7735V18.0977C21.3848 19.1116 21.7824 20.0051 22.5344 20.6817C23.0652 21.1593 23.5932 21.3653 23.677 21.3962C23.7581 21.4314 23.8474 21.4512 23.9414 21.4512C24.3082 21.4512 24.6055 21.1539 24.6055 20.7871C24.6055 20.4868 24.4061 20.2334 24.1324 20.1513L24.1333 20.1489L24.1375 20.1504C24.0793 20.1286 22.7129 19.5974 22.7129 18.0977V15.7735C22.7129 13.1401 20.7029 10.9388 18.1309 10.6308V9.66412C18.1309 9.29736 17.8336 9.00006 17.4669 9.00006C17.1001 9.00006 16.8028 9.29736 16.8028 9.66412V10.6392C16.248 10.7128 15.7126 10.876 15.205 11.1278C14.8765 11.2908 14.7423 11.6893 14.9053 12.0179C15.0212 12.2516 15.2563 12.3869 15.5006 12.3869Z" fill="white"/>
<path d="M25.8057 24.8671L10.1339 9.19524C9.87454 8.9359 9.45406 8.9359 9.19474 9.19524C8.93543 9.45459 8.93539 9.87504 9.19474 10.1344L12.7566 13.6963C12.4708 14.3487 12.3205 15.0593 12.3205 15.7742V18.0984C12.3205 19.5813 10.9845 20.1173 10.8984 20.1502C10.6316 20.243 10.4612 20.4917 10.4612 20.7743C10.4612 21.4713 10.7095 22.2333 11.1253 22.8128C11.6788 23.5839 12.5044 24.0085 13.4498 24.0085H15.508C15.508 25.107 16.4017 26.0007 17.5002 26.0007C18.5987 26.0007 19.4924 25.107 19.4924 24.0085H21.5506C22.0093 24.0085 22.4302 23.9205 22.8073 23.747L24.8666 25.8062C24.9962 25.9359 25.1662 26.0007 25.3361 26.0007C25.5061 26.0007 25.676 25.9359 25.8057 25.8062C26.0651 25.5469 26.0651 25.1264 25.8057 24.8671ZM17.5002 24.6726C17.1341 24.6726 16.8362 24.3747 16.8362 24.0085H18.1643C18.1643 24.3747 17.8664 24.6726 17.5002 24.6726ZM21.5507 22.6804H13.4498C12.4228 22.6804 11.9645 21.8199 11.832 21.1665C12.028 21.0531 12.2633 20.8945 12.4991 20.6824C13.2512 20.0058 13.6487 19.1123 13.6487 18.0984V15.7742C13.6487 15.4215 13.6977 15.0704 13.7927 14.7324L21.732 22.6717C21.673 22.6769 21.6129 22.6804 21.5507 22.6804Z" fill="white"/>
</g>
<defs>
<clipPath id="clip0_301_361">
<rect width="17" height="17" fill="white" transform="translate(9 9)"/>
</clipPath>
</defs>
</svg>
