<svg width="42" height="42" viewBox="0 0 42 42" fill="none" xmlns="http://www.w3.org/2000/svg">
<path d="M29.8828 0H8.43492C7.51851 0 6.77563 0.752119 6.77563 1.68003V40.32C6.77563 41.2478 7.51851 42 8.43501 42H35.5376C36.454 42 37.197 41.2479 37.197 40.32V7.40522L29.8828 0Z" fill="#EEEEEE"/>
<path d="M37.197 23H4.28662V34.5069H37.197V23Z" fill="#DB3227"/>
<path d="M4.28662 34.5L6.77568 36.9953V34.5L4.28662 34.5Z" fill="#861E17"/>
<path d="M29.8829 7.40522H37.197L29.8828 0L29.8829 7.40522Z" fill="#DDDDDD"/>
<path d="M31.29 7.40521L37.197 10.875V7.40521H31.29Z" fill="#EFEFEF"/>
<path d="M16.8383 25.6002C17.3226 26 17.5647 26.6163 17.5647 27.449C17.5647 28.2817 17.3177 28.8912 16.8229 29.2782C16.3289 29.6651 15.571 29.8584 14.5499 29.8584H13.3157V31.8744H12.1416V25H14.5297C15.5849 25 16.3542 25.2 16.8383 25.6002ZM16.0075 28.4374C16.2431 28.1913 16.3606 27.8307 16.3606 27.3553C16.3606 26.8804 16.2116 26.5442 15.9127 26.3473C15.6139 26.1508 15.1467 26.0524 14.5094 26.0524H13.3158V28.8059H14.6787C15.329 28.806 15.7719 28.6831 16.0075 28.4374Z" fill="#E1E6E9"/>
<path d="M24.2114 25.9C24.8819 26.4998 25.2163 27.3342 25.2163 28.403C25.2163 29.4714 24.8916 30.3174 24.2413 30.94C23.5911 31.5631 22.5958 31.8744 21.2565 31.8744H18.9478V25H21.3358C22.5829 25 23.5417 25.3001 24.2114 25.9ZM24.0324 28.4322C24.0324 26.8588 23.1205 26.072 21.2962 26.072H20.122V30.7827H21.4258C22.268 30.7827 22.9133 30.5847 23.3611 30.1877C23.8089 29.7912 24.0324 29.2061 24.0324 28.4322Z" fill="#E1E6E9"/>
<path d="M27.9032 26.082V27.97H30.9877V29.042H27.9032V31.8744H26.729V25H31.3658L31.3561 26.0821H27.9032V26.082Z" fill="#E1E6E9"/>
</svg>
