<svg width="18" height="18" viewBox="0 0 18 18" fill="none" xmlns="http://www.w3.org/2000/svg">
<path fill-rule="evenodd" clip-rule="evenodd" d="M0 3C0 1.34315 1.34315 0 3 0H15C16.6569 0 18 1.34315 18 3V15C18 16.6569 16.6569 18 15 18H3C1.34315 18 0 16.6569 0 15V3ZM3 2C2.44772 2 2 2.44772 2 3V12.5858L4.29289 10.2929L4.87258 9.7132L5.5547 10.1679L7.87258 11.7132L11.7929 7.79289L12.4171 7.16867L13.1139 7.71065L16 9.95536V3C16 2.44772 15.5523 2 15 2H3ZM16 12.4891L12.5829 9.83133L8.70711 13.7071L8.12742 14.2868L7.4453 13.8321L5.12742 12.2868L2.0633 15.3509C2.20542 15.7301 2.57119 16 3 16H15C15.5523 16 16 15.5523 16 15V12.4891ZM7 5.5C7 6.32843 6.32843 7 5.5 7C4.67157 7 4 6.32843 4 5.5C4 4.67157 4.67157 4 5.5 4C6.32843 4 7 4.67157 7 5.5Z" fill="#333333"/>
</svg>
